<svg xmlns="http://www.w3.org/2000/svg" width="900" height="1100" viewBox="0 0 900 1100">
  <defs>
    <linearGradient id="bg" x1="0" y1="0" x2="1" y2="1">
      <stop offset="0" stop-color="#0a1727"/>
      <stop offset="1" stop-color="#111b32"/>
    </linearGradient>
    <linearGradient id="stroke" x1="0" y1="0" x2="1" y2="1">
      <stop offset="0" stop-color="#5ce8d8"/>
      <stop offset="1" stop-color="#d370ff"/>
    </linearGradient>
  </defs>
  <rect width="900" height="1100" fill="url(#bg)"/>
  <g fill="none" stroke="#25405a" stroke-width="1" opacity="0.6">
    <path d="M0 150H900M0 300H900M0 450H900M0 600H900M0 750H900M0 900H900"/>
    <path d="M150 0V1100M300 0V1100M450 0V1100M600 0V1100M750 0V1100"/>
  </g>
  <g transform="translate(450 540)" fill="none" stroke="url(#stroke)">
    <ellipse rx="260" ry="110" stroke-width="4" transform="rotate(-18)"/>
    <ellipse rx="260" ry="110" stroke-width="4" transform="rotate(32)"/>
    <ellipse rx="220" ry="210" stroke-width="2" opacity="0.45"/>
    <path d="M-250 80 C-130 -130, 10 -160, 125 -30 S210 110 270 -140" stroke-width="7"/>
  </g>
  <circle cx="450" cy="540" r="13" fill="#5ce8d8"/>
  <text x="450" y="950" text-anchor="middle" fill="#d9e8f7" font-family="Arial, sans-serif" font-size="34">YOUR PHOTO / RESEARCH VISUAL</text>
  <text x="450" y="1000" text-anchor="middle" fill="#758ba2" font-family="monospace" font-size="22">assets/profile-placeholder.svg</text>
</svg>
